<svg xmlns="http://www.w3.org/2000/svg" width="60" height="60" fill="none" viewBox="0 0 60 60">
  <path fill="#F71963" d="M32.6081 15.6533H1.30432C0.583033 15.6533 0 16.2377 0 16.9576V40.4355C0 40.8985 0.245213 41.3289 0.646945 41.5624L31.9507 59.823C32.1529 59.9417 32.3812 60.0003 32.6081 60.0003C32.8325 60.0003 33.0568 59.943 33.2577 59.8269C33.6633 59.5947 33.9124 59.163 33.9124 58.696V16.9576C33.9124 16.2377 33.3294 15.6533 32.6081 15.6533Z"/>
  <path fill="#DD1659" d="M58.8253 18.2684L32.7388 15.6597C32.6945 15.6558 32.6527 15.6741 32.6084 15.6741V60.0002C32.8706 60.0002 33.1327 59.9207 33.3558 59.7642L59.4423 41.5036C59.7918 41.2597 59.9992 40.8606 59.9992 40.4354V19.5662C59.9992 18.8958 59.4905 18.3349 58.8253 18.2684Z"/>
  <path fill="#FF1D68" d="M59.352 18.4391L28.0482 0.178556C27.636 -0.062744 27.1274 -0.0588311 26.7191 0.186382L0.632618 15.8383C0.238712 16.0757 -0.00258771 16.5048 2.0939e-05 16.9652C0.00262959 17.4256 0.247843 17.8508 0.646966 18.083L31.9508 36.3436C32.1542 36.4636 32.3812 36.5222 32.6081 36.5222C32.8403 36.5222 33.0725 36.4609 33.2799 36.3357L59.3663 20.6838C59.7616 20.4465 60.0016 20.0186 59.9989 19.5569C59.9963 19.0952 59.7511 18.6713 59.352 18.4391Z"/>
  <path fill="#E3E4E6" d="M15.6143 6.84961L10.5105 9.91216L44.329 29.6401V29.7053L49.4889 26.6101L15.6143 6.84961Z"/>
  <path fill="#CACBCC" d="M49.489 26.6104L44.3291 29.7055L44.3435 52.0734L49.5581 48.4226L49.5438 26.643L49.489 26.6104Z"/>
</svg>
